<svg version="1.1" xmlns="http://www.w3.org/2000/svg" xmlns:xlink="http://www.w3.org/1999/xlink" width="548" height="447"><defs/><g><g transform="translate(-134,-94) scale(1,1)"><rect fill="#C0C0C0" stroke="none" x="519" y="111" width="160" height="177" opacity="0.2"/></g><g transform="translate(-134,-94) scale(1,1)"><rect fill="#ffffff" stroke="none" x="512" y="104" width="160" height="177"/></g><g transform="translate(-134,-94) scale(1,1)"><path fill="none" stroke="#000000" d="M 512 104 L 672 104 L 672 281 L 512 281 L 512 104 Z Z" stroke-miterlimit="10"/></g><g transform="translate(-134,-94) scale(1,1)"><path fill="none" stroke="#000000" d="M 512 129 L 672 129" stroke-miterlimit="10"/></g><g transform="translate(-134,-94) scale(1,1)"><path fill="none" stroke="#000000" d="M 512 257 L 672 257" stroke-miterlimit="10"/></g><g transform="translate(-134,-94) scale(1,1)"><g><path fill="none" stroke="none"/><text fill="#000000" stroke="none" font-family="Arial" font-size="13px" font-style="normal" font-weight="bold" text-decoration="none" x="576.10546875" y="123.5">Flight</text></g></g><g transform="translate(-134,-94) scale(1,1)"><g><path fill="none" stroke="none"/><text fill="#000000" stroke="none" font-family="Arial" font-size="13px" font-style="normal" font-weight="normal" text-decoration="none" x="517" y="146.5">-flightId: int</text></g></g><g transform="translate(-134,-94) scale(1,1)"><g><path fill="none" stroke="none"/><text fill="#000000" stroke="none" font-family="Arial" font-size="13px" font-style="normal" font-weight="normal" text-decoration="none" x="517" y="161.5">-departureDate: date</text></g></g><g transform="translate(-134,-94) scale(1,1)"><g><path fill="none" stroke="none"/><text fill="#000000" stroke="none" font-family="Arial" font-size="13px" font-style="normal" font-weight="normal" text-decoration="none" x="517" y="176.5">-arrivalDate: date</text></g></g><g transform="translate(-134,-94) scale(1,1)"><g><path fill="none" stroke="none"/><text fill="#000000" stroke="none" font-family="Arial" font-size="13px" font-style="normal" font-weight="normal" text-decoration="none" x="517" y="191.5">-departureAirport: string</text></g></g><g transform="translate(-134,-94) scale(1,1)"><g><path fill="none" stroke="none"/><text fill="#000000" stroke="none" font-family="Arial" font-size="13px" font-style="normal" font-weight="normal" text-decoration="none" x="517" y="206.5">-arrivalAirport; string</text></g></g><g transform="translate(-134,-94) scale(1,1)"><g><path fill="none" stroke="none"/><text fill="#000000" stroke="none" font-family="Arial" font-size="13px" font-style="normal" font-weight="normal" text-decoration="none" x="517" y="221.5">-nbrPlaces: int</text></g></g><g transform="translate(-134,-94) scale(1,1)"><g><path fill="none" stroke="none"/><text fill="#000000" stroke="none" font-family="Arial" font-size="13px" font-style="normal" font-weight="normal" text-decoration="none" x="517" y="236.5">-nbrPlacesReserved: int</text></g></g><g transform="translate(-134,-94) scale(1,1)"><g><path fill="none" stroke="none"/><text fill="#000000" stroke="none" font-family="Arial" font-size="13px" font-style="normal" font-weight="normal" text-decoration="none" x="517" y="251.5">-prix: float</text></g></g><g transform="translate(-134,-94) scale(1,1)"><rect fill="#C0C0C0" stroke="none" x="519" y="407" width="159" height="96" opacity="0.2"/></g><g transform="translate(-134,-94) scale(1,1)"><rect fill="#ffffff" stroke="none" x="512" y="400" width="159" height="96"/></g><g transform="translate(-134,-94) scale(1,1)"><path fill="none" stroke="#000000" d="M 512 400 L 671 400 L 671 496 L 512 496 L 512 400 Z Z" stroke-miterlimit="10"/></g><g transform="translate(-134,-94) scale(1,1)"><path fill="none" stroke="#000000" d="M 512 425 L 671 425" stroke-miterlimit="10"/></g><g transform="translate(-134,-94) scale(1,1)"><path fill="none" stroke="#000000" d="M 512 463 L 671 463" stroke-miterlimit="10"/></g><g transform="translate(-134,-94) scale(1,1)"><g><path fill="none" stroke="none"/><text fill="#000000" stroke="none" font-family="Arial" font-size="13px" font-style="normal" font-weight="bold" text-decoration="none" x="568.010498046875" y="419.5">Booking</text></g></g><g transform="translate(-134,-94) scale(1,1)"><g><path fill="none" stroke="none"/><text fill="#000000" stroke="none" font-family="Arial" font-size="13px" font-style="normal" font-weight="normal" text-decoration="none" x="517" y="442.5">-id: int</text></g></g><g transform="translate(-134,-94) scale(1,1)"><g><path fill="none" stroke="none"/><text fill="#000000" stroke="none" font-family="Arial" font-size="13px" font-style="normal" font-weight="normal" text-decoration="none" x="517" y="457.5">-bookingDate: date</text></g></g><g transform="translate(-134,-94) scale(1,1)"><rect fill="#C0C0C0" stroke="none" x="167" y="391" width="134.708984375" height="147" opacity="0.2"/></g><g transform="translate(-134,-94) scale(1,1)"><rect fill="#ffffff" stroke="none" x="160" y="384" width="134.708984375" height="147"/></g><g transform="translate(-134,-94) scale(1,1)"><path fill="none" stroke="#000000" d="M 160 384 L 294.708984375 384 L 294.708984375 531 L 160 531 L 160 384 Z Z" stroke-miterlimit="10"/></g><g transform="translate(-134,-94) scale(1,1)"><path fill="none" stroke="#000000" d="M 160 409 L 294.708984375 409" stroke-miterlimit="10"/></g><g transform="translate(-134,-94) scale(1,1)"><path fill="none" stroke="#000000" d="M 160 522 L 294.708984375 522" stroke-miterlimit="10"/></g><g transform="translate(-134,-94) scale(1,1)"><g><path fill="none" stroke="none"/><text fill="#000000" stroke="none" font-family="Arial" font-size="13px" font-style="normal" font-weight="bold" text-decoration="none" x="213.630859375" y="403.5">User</text></g></g><g transform="translate(-134,-94) scale(1,1)"><g><path fill="none" stroke="none"/><text fill="#000000" stroke="none" font-family="Arial" font-size="13px" font-style="normal" font-weight="normal" text-decoration="none" x="165" y="426.5">-userId: int</text></g></g><g transform="translate(-134,-94) scale(1,1)"><g><path fill="none" stroke="none"/><text fill="#000000" stroke="none" font-family="Arial" font-size="13px" font-style="normal" font-weight="normal" text-decoration="none" x="165" y="441.5">-firstName: string</text></g></g><g transform="translate(-134,-94) scale(1,1)"><g><path fill="none" stroke="none"/><text fill="#000000" stroke="none" font-family="Arial" font-size="13px" font-style="normal" font-weight="normal" text-decoration="none" x="165" y="456.5">-lastName: string</text></g></g><g transform="translate(-134,-94) scale(1,1)"><g><path fill="none" stroke="none"/><text fill="#000000" stroke="none" font-family="Arial" font-size="13px" font-style="normal" font-weight="normal" text-decoration="none" x="165" y="471.5">-email: string</text></g></g><g transform="translate(-134,-94) scale(1,1)"><g><path fill="none" stroke="none"/><text fill="#000000" stroke="none" font-family="Arial" font-size="13px" font-style="normal" font-weight="normal" text-decoration="none" x="165" y="486.5">-password: string</text></g></g><g transform="translate(-134,-94) scale(1,1)"><g><path fill="none" stroke="none"/><text fill="#000000" stroke="none" font-family="Arial" font-size="13px" font-style="normal" font-weight="normal" text-decoration="none" x="165" y="501.5">-numPassport: string</text></g></g><g transform="translate(-134,-94) scale(1,1)"><g><path fill="none" stroke="none"/><text fill="#000000" stroke="none" font-family="Arial" font-size="13px" font-style="normal" font-weight="normal" text-decoration="none" x="165" y="516.5">-birthDate: date</text></g></g><g transform="translate(-134,-94) scale(1,1)"><rect fill="#C0C0C0" stroke="none" x="151" y="151" width="111" height="87" opacity="0.2"/></g><g transform="translate(-134,-94) scale(1,1)"><rect fill="#ffffff" stroke="none" x="144" y="144" width="111" height="87"/></g><g transform="translate(-134,-94) scale(1,1)"><path fill="none" stroke="#000000" d="M 144 144 L 255 144 L 255 231 L 144 231 L 144 144 Z Z" stroke-miterlimit="10"/></g><g transform="translate(-134,-94) scale(1,1)"><path fill="none" stroke="#000000" d="M 144 169 L 255 169" stroke-miterlimit="10"/></g><g transform="translate(-134,-94) scale(1,1)"><path fill="none" stroke="#000000" d="M 144 222 L 255 222" stroke-miterlimit="10"/></g><g transform="translate(-134,-94) scale(1,1)"><g><path fill="none" stroke="none"/><text fill="#000000" stroke="none" font-family="Arial" font-size="13px" font-style="normal" font-weight="bold" text-decoration="none" x="181.075927734375" y="163.5">Admin</text></g></g><g transform="translate(-134,-94) scale(1,1)"><g><path fill="none" stroke="none"/><text fill="#000000" stroke="none" font-family="Arial" font-size="13px" font-style="normal" font-weight="normal" text-decoration="none" x="149" y="186.5">-id: int</text></g></g><g transform="translate(-134,-94) scale(1,1)"><g><path fill="none" stroke="none"/><text fill="#000000" stroke="none" font-family="Arial" font-size="13px" font-style="normal" font-weight="normal" text-decoration="none" x="149" y="201.5">-username: string</text></g></g><g transform="translate(-134,-94) scale(1,1)"><g><path fill="none" stroke="none"/><text fill="#000000" stroke="none" font-family="Arial" font-size="13px" font-style="normal" font-weight="normal" text-decoration="none" x="149" y="216.5">-password: string</text></g></g><g transform="translate(-134,-94) scale(1,1)"><path fill="none" stroke="#000000" d="M 256 188 L 511 191" stroke-miterlimit="10"/></g><g transform="translate(-134,-94) scale(1,1)"><g><path fill="none" stroke="none"/><text fill="#000000" stroke="none" font-family="Arial" font-size="13px" font-style="normal" font-weight="normal" text-decoration="none" x="355.5" y="180.5">+Manage</text></g></g><g transform="translate(-134,-94) scale(1,1)"><g><path fill="none" stroke="none"/><text fill="#000000" stroke="none" font-family="Arial" font-size="13px" font-style="normal" font-weight="normal" text-decoration="none" x="267.5" y="206.5">1..*</text></g></g><g transform="translate(-134,-94) scale(1,1)"><g><path fill="none" stroke="none"/><text fill="#000000" stroke="none" font-family="Arial" font-size="13px" font-style="normal" font-weight="normal" text-decoration="none" x="479.5" y="209.5">0..*</text></g></g><g transform="translate(-134,-94) scale(1,1)"><path fill="none" stroke="#000000" d="M 296 455 L 511 450" stroke-miterlimit="10"/></g><g transform="translate(-134,-94) scale(1,1)"><g><path fill="none" stroke="none"/><text fill="#000000" stroke="none" font-family="Arial" font-size="13px" font-style="normal" font-weight="normal" text-decoration="none" x="313.5" y="472.5">1</text></g></g><g transform="translate(-134,-94) scale(1,1)"><g><path fill="none" stroke="none"/><text fill="#000000" stroke="none" font-family="Arial" font-size="13px" font-style="normal" font-weight="normal" text-decoration="none" x="479.5" y="468.5">0..*</text></g></g><g transform="translate(-134,-94) scale(1,1)"><path fill="none" stroke="#000000" d="M 592 282 L 591 399" stroke-miterlimit="10"/></g><g transform="translate(-134,-94) scale(1,1)"><g><path fill="none" stroke="none"/><text fill="#000000" stroke="none" font-family="Arial" font-size="13px" font-style="normal" font-weight="normal" text-decoration="none" x="575.5" y="309.5">1</text></g></g><g transform="translate(-134,-94) scale(1,1)"><g><path fill="none" stroke="none"/><text fill="#000000" stroke="none" font-family="Arial" font-size="13px" font-style="normal" font-weight="normal" text-decoration="none" x="574.5" y="383.5">1</text></g></g><g transform="translate(-134,-94) scale(1,1)"><path fill="none" stroke="#000000" d="M 256 225 L 517 399" stroke-miterlimit="10"/></g><g transform="translate(-134,-94) scale(1,1)"><g><path fill="none" stroke="none"/><text fill="#000000" stroke="none" font-family="Arial" font-size="13px" font-style="normal" font-weight="normal" text-decoration="none" x="376.5" y="305.5">+View</text></g></g><g transform="translate(-134,-94) scale(1,1)"><g><path fill="none" stroke="none"/><text fill="#000000" stroke="none" font-family="Arial" font-size="13px" font-style="normal" font-weight="normal" text-decoration="none" x="482.5" y="403.5">0..*</text></g></g></g></svg>