<svg version="1.1" xmlns="http://www.w3.org/2000/svg" xmlns:xlink="http://www.w3.org/1999/xlink" width="740" height="564"><defs/><g><g transform="translate(-150,-62) scale(1,1)"><rect fill="#C0C0C0" stroke="none" x="343" y="79" width="544" height="544" opacity="0.2"/></g><g transform="translate(-150,-62) scale(1,1)"><rect fill="#ffffff" stroke="none" x="336" y="72" width="544" height="544"/></g><g transform="translate(-150,-62) scale(1,1)"><path fill="none" stroke="#000000" d="M 336 72 L 880 72 L 880 616 L 336 616 L 336 72 Z Z" stroke-miterlimit="10"/></g><g transform="translate(-150,-62) scale(1,1)"><g><path fill="none" stroke="none"/><text fill="#000000" stroke="none" font-family="Arial" font-size="13px" font-style="normal" font-weight="bold" text-decoration="none" x="545.13916015625" y="91.5">Flight booking system</text></g></g><g transform="translate(-150,-62) scale(1,1)"><path fill="#ffffff" stroke="none" d="M 186.5170909090909 210.53 C 186.5170909090909 205.266725856 190.76273344930908 201 196 201 C 201.23726655069092 201 205.4829090909091 205.266725856 205.4829090909091 210.53 C 205.4829090909091 215.793274144 201.23726655069092 220.06 196 220.06 C 190.76273344930908 220.06 186.5170909090909 215.793274144 186.5170909090909 210.53 Z"/></g><g transform="translate(-150,-62) scale(1,1)"><path fill="none" stroke="#000000" d="M 186.5170909090909 210.53 C 186.5170909090909 205.266725856 190.76273344930908 201 196 201 C 201.23726655069092 201 205.4829090909091 205.266725856 205.4829090909091 210.53 C 205.4829090909091 215.793274144 201.23726655069092 220.06 196 220.06 C 190.76273344930908 220.06 186.5170909090909 215.793274144 186.5170909090909 210.53 Z" stroke-miterlimit="10"/></g><g transform="translate(-150,-62) scale(1,1)"><path fill="none" stroke="#000000" d="M 196 220.06 L 196 238.94" stroke-miterlimit="10"/></g><g transform="translate(-150,-62) scale(1,1)"><path fill="none" stroke="#000000" d="M 185.95927272727272 227.14 L 206.04072727272728 227.14" stroke-miterlimit="10"/></g><g transform="translate(-150,-62) scale(1,1)"><path fill="none" stroke="#000000" d="M 196 238.94 L 182.05454545454546 258" stroke-miterlimit="10"/></g><g transform="translate(-150,-62) scale(1,1)"><path fill="none" stroke="#000000" d="M 196 238.94 L 209.94545454545454 258" stroke-miterlimit="10"/></g><g transform="translate(-150,-62) scale(1,1)"><g><path fill="none" stroke="none"/><text fill="#000000" stroke="none" font-family="Arial" font-size="13px" font-style="normal" font-weight="bold" text-decoration="none" x="182.2763671875" y="278.5">User</text></g></g><g transform="translate(-150,-62) scale(1,1)"><path fill="#C0C0C0" stroke="none" d="M 399 144 C 399 134.6111584 423.4004784 127 453.5 127 C 483.5995216 127 508 134.6111584 508 144 C 508 153.3888416 483.5995216 161 453.5 161 C 423.4004784 161 399 153.3888416 399 144 Z" opacity="0.2"/></g><g transform="translate(-150,-62) scale(1,1)"><path fill="#ffffff" stroke="none" d="M 392 137 C 392 127.6111584 416.4004784 120 446.5 120 C 476.5995216 120 501 127.6111584 501 137 C 501 146.3888416 476.5995216 154 446.5 154 C 416.4004784 154 392 146.3888416 392 137 Z"/></g><g transform="translate(-150,-62) scale(1,1)"><path fill="none" stroke="#000000" d="M 392 137 C 392 127.6111584 416.4004784 120 446.5 120 C 476.5995216 120 501 127.6111584 501 137 C 501 146.3888416 476.5995216 154 446.5 154 C 416.4004784 154 392 146.3888416 392 137 Z" stroke-miterlimit="10"/></g><g transform="translate(-150,-62) scale(1,1)"><g><path fill="none" stroke="none"/><text fill="#000000" stroke="none" font-family="Arial" font-size="13px" font-style="normal" font-weight="bold" text-decoration="none" x="416.148681640625" y="144">Book flight</text></g></g><g transform="translate(-150,-62) scale(1,1)"><path fill="#C0C0C0" stroke="none" d="M 751 304 C 751 294.6111584 778.7583424 287 813 287 C 847.2416576 287 875 294.6111584 875 304 C 875 313.3888416 847.2416576 321 813 321 C 778.7583424 321 751 313.3888416 751 304 Z" opacity="0.2"/></g><g transform="translate(-150,-62) scale(1,1)"><path fill="#ffffff" stroke="none" d="M 744 297 C 744 287.6111584 771.7583424 280 806 280 C 840.2416576 280 868 287.6111584 868 297 C 868 306.3888416 840.2416576 314 806 314 C 771.7583424 314 744 306.3888416 744 297 Z"/></g><g transform="translate(-150,-62) scale(1,1)"><path fill="none" stroke="#000000" d="M 744 297 C 744 287.6111584 771.7583424 280 806 280 C 840.2416576 280 868 287.6111584 868 297 C 868 306.3888416 840.2416576 314 806 314 C 771.7583424 314 744 306.3888416 744 297 Z" stroke-miterlimit="10"/></g><g transform="translate(-150,-62) scale(1,1)"><g><path fill="none" stroke="none"/><text fill="#000000" stroke="none" font-family="Arial" font-size="13px" font-style="normal" font-weight="bold" text-decoration="none" x="769.86279296875" y="304">Authenticate</text></g></g><g transform="translate(-150,-62) scale(1,1)"><path fill="none" stroke="#000000" d="M 487 155 L 766 279" stroke-miterlimit="10" stroke-dasharray="3"/></g><g transform="translate(-150,-62) scale(1,1)"><path fill="none" stroke="#000000" d="M 755.0035832659772 278.71925276189404 L 766 279 L 758.4228774344834 271.0258408827551" stroke-miterlimit="10"/></g><g transform="translate(-150,-62) scale(1,1)"><g><path fill="none" stroke="none"/><text fill="#000000" stroke="none" font-family="Arial" font-size="13px" font-style="normal" font-weight="normal" text-decoration="none" x="558.5" y="206.5">«include»</text></g></g><g transform="translate(-150,-62) scale(1,1)"><path fill="#C0C0C0" stroke="none" d="M 367 288 C 367 278.6111584 401.4740704 271 444 271 C 486.5259296 271 521 278.6111584 521 288 C 521 297.3888416 486.5259296 305 444 305 C 401.4740704 305 367 297.3888416 367 288 Z" opacity="0.2"/></g><g transform="translate(-150,-62) scale(1,1)"><path fill="#ffffff" stroke="none" d="M 360 281 C 360 271.6111584 394.4740704 264 437 264 C 479.5259296 264 514 271.6111584 514 281 C 514 290.3888416 479.5259296 298 437 298 C 394.4740704 298 360 290.3888416 360 281 Z"/></g><g transform="translate(-150,-62) scale(1,1)"><path fill="none" stroke="#000000" d="M 360 281 C 360 271.6111584 394.4740704 264 437 264 C 479.5259296 264 514 271.6111584 514 281 C 514 290.3888416 479.5259296 298 437 298 C 394.4740704 298 360 290.3888416 360 281 Z" stroke-miterlimit="10"/></g><g transform="translate(-150,-62) scale(1,1)"><g><path fill="none" stroke="none"/><text fill="#000000" stroke="none" font-family="Arial" font-size="13px" font-style="normal" font-weight="bold" text-decoration="none" x="391.471435546875" y="288">Modifie booking</text></g></g><g transform="translate(-150,-62) scale(1,1)"><path fill="none" stroke="#000000" d="M 515 284 L 743 294" stroke-miterlimit="10" stroke-dasharray="3"/></g><g transform="translate(-150,-62) scale(1,1)"><path fill="none" stroke="#000000" d="M 732.6626352266886 297.76017147793846 L 743 294 L 733.0315365187181 289.34922201966714" stroke-miterlimit="10"/></g><g transform="translate(-150,-62) scale(1,1)"><g><path fill="none" stroke="none"/><text fill="#000000" stroke="none" font-family="Arial" font-size="13px" font-style="normal" font-weight="normal" text-decoration="none" x="567.5" y="283.5">«include»</text></g></g><g transform="translate(-150,-62) scale(1,1)"><path fill="#C0C0C0" stroke="none" d="M 375 360 C 375 350.6111584 408.57864 343 450 343 C 491.42136 343 525 350.6111584 525 360 C 525 369.3888416 491.42136 377 450 377 C 408.57864 377 375 369.3888416 375 360 Z" opacity="0.2"/></g><g transform="translate(-150,-62) scale(1,1)"><path fill="#ffffff" stroke="none" d="M 368 353 C 368 343.6111584 401.57864 336 443 336 C 484.42136 336 518 343.6111584 518 353 C 518 362.3888416 484.42136 370 443 370 C 401.57864 370 368 362.3888416 368 353 Z"/></g><g transform="translate(-150,-62) scale(1,1)"><path fill="none" stroke="#000000" d="M 368 353 C 368 343.6111584 401.57864 336 443 336 C 484.42136 336 518 343.6111584 518 353 C 518 362.3888416 484.42136 370 443 370 C 401.57864 370 368 362.3888416 368 353 Z" stroke-miterlimit="10"/></g><g transform="translate(-150,-62) scale(1,1)"><g><path fill="none" stroke="none"/><text fill="#000000" stroke="none" font-family="Arial" font-size="13px" font-style="normal" font-weight="bold" text-decoration="none" x="398.19189453125" y="360">Cancel booking</text></g></g><g transform="translate(-150,-62) scale(1,1)"><path fill="none" stroke="#000000" d="M 519 341 L 743 307" stroke-miterlimit="10" stroke-dasharray="3"/></g><g transform="translate(-150,-62) scale(1,1)"><path fill="none" stroke="#000000" d="M 733.5841179599068 312.68692934781603 L 743 307 L 732.320699652628 304.36323226456705" stroke-miterlimit="10"/></g><g transform="translate(-150,-62) scale(1,1)"><g><path fill="none" stroke="none"/><text fill="#000000" stroke="none" font-family="Arial" font-size="13px" font-style="normal" font-weight="normal" text-decoration="none" x="605.5" y="324.5">«include»</text></g></g><g transform="translate(-150,-62) scale(1,1)"><path fill="#C0C0C0" stroke="none" d="M 359 224 C 359 214.6111584 405.3385232 207 462.5 207 C 519.6614768 207 566 214.6111584 566 224 C 566 233.3888416 519.6614768 241 462.5 241 C 405.3385232 241 359 233.3888416 359 224 Z" opacity="0.2"/></g><g transform="translate(-150,-62) scale(1,1)"><path fill="#ffffff" stroke="none" d="M 352 217 C 352 207.6111584 398.3385232 200 455.5 200 C 512.6614768 200 559 207.6111584 559 217 C 559 226.3888416 512.6614768 234 455.5 234 C 398.3385232 234 352 226.3888416 352 217 Z"/></g><g transform="translate(-150,-62) scale(1,1)"><path fill="none" stroke="#000000" d="M 352 217 C 352 207.6111584 398.3385232 200 455.5 200 C 512.6614768 200 559 207.6111584 559 217 C 559 226.3888416 512.6614768 234 455.5 234 C 398.3385232 234 352 226.3888416 352 217 Z" stroke-miterlimit="10"/></g><g transform="translate(-150,-62) scale(1,1)"><g><path fill="none" stroke="none"/><text fill="#000000" stroke="none" font-family="Arial" font-size="13px" font-style="normal" font-weight="bold" text-decoration="none" x="392.5185546875" y="224">Track bookings status</text></g></g><g transform="translate(-150,-62) scale(1,1)"><path fill="none" stroke="#000000" d="M 534 235 L 743 283" stroke-miterlimit="10" stroke-dasharray="3"/></g><g transform="translate(-150,-62) scale(1,1)"><path fill="none" stroke="#000000" d="M 732.1529397699504 284.8279180412906 L 743 283 L 734.0374369129431 276.6225033978428" stroke-miterlimit="10"/></g><g transform="translate(-150,-62) scale(1,1)"><g><path fill="none" stroke="none"/><text fill="#000000" stroke="none" font-family="Arial" font-size="13px" font-style="normal" font-weight="normal" text-decoration="none" x="614.5" y="262.5">«include»</text></g></g><g transform="translate(-150,-62) scale(1,1)"><path fill="#ffffff" stroke="none" d="M 176.40935031960228 425.68 C 176.40935031960228 420.886167936 180.29519264454774 417 185.088623046875 417 C 189.88205344920226 417 193.76789577414772 420.886167936 193.76789577414772 425.68 C 193.76789577414772 430.473832064 189.88205344920226 434.36 185.088623046875 434.36 C 180.29519264454774 434.36 176.40935031960228 430.473832064 176.40935031960228 425.68 Z"/></g><g transform="translate(-150,-62) scale(1,1)"><path fill="none" stroke="#000000" d="M 176.40935031960228 425.68 C 176.40935031960228 420.886167936 180.29519264454774 417 185.088623046875 417 C 189.88205344920226 417 193.76789577414772 420.886167936 193.76789577414772 425.68 C 193.76789577414772 430.473832064 189.88205344920226 434.36 185.088623046875 434.36 C 180.29519264454774 434.36 176.40935031960228 430.473832064 176.40935031960228 425.68 Z" stroke-miterlimit="10"/></g><g transform="translate(-150,-62) scale(1,1)"><path fill="none" stroke="#000000" d="M 185.088623046875 434.36 L 185.088623046875 451.64" stroke-miterlimit="10"/></g><g transform="translate(-150,-62) scale(1,1)"><path fill="none" stroke="#000000" d="M 175.89880486505683 440.84 L 194.27844122869317 440.84" stroke-miterlimit="10"/></g><g transform="translate(-150,-62) scale(1,1)"><path fill="none" stroke="#000000" d="M 185.088623046875 451.64 L 172.32498668323865 469" stroke-miterlimit="10"/></g><g transform="translate(-150,-62) scale(1,1)"><path fill="none" stroke="#000000" d="M 185.088623046875 451.64 L 197.85225941051135 469" stroke-miterlimit="10"/></g><g transform="translate(-150,-62) scale(1,1)"><g><path fill="none" stroke="none"/><text fill="#000000" stroke="none" font-family="Arial" font-size="13px" font-style="normal" font-weight="bold" text-decoration="none" x="166.66455078125" y="489.5">Admin</text></g></g><g transform="translate(-150,-62) scale(1,1)"><path fill="#C0C0C0" stroke="none" d="M 399 552 C 399 542.6111584 430.5639216 535 469.5 535 C 508.4360784 535 540 542.6111584 540 552 C 540 561.3888416 508.4360784 569 469.5 569 C 430.5639216 569 399 561.3888416 399 552 Z" opacity="0.2"/></g><g transform="translate(-150,-62) scale(1,1)"><path fill="#ffffff" stroke="none" d="M 392 545 C 392 535.6111584 423.5639216 528 462.5 528 C 501.4360784 528 533 535.6111584 533 545 C 533 554.3888416 501.4360784 562 462.5 562 C 423.5639216 562 392 554.3888416 392 545 Z"/></g><g transform="translate(-150,-62) scale(1,1)"><path fill="none" stroke="#000000" d="M 392 545 C 392 535.6111584 423.5639216 528 462.5 528 C 501.4360784 528 533 535.6111584 533 545 C 533 554.3888416 501.4360784 562 462.5 562 C 423.5639216 562 392 554.3888416 392 545 Z" stroke-miterlimit="10"/></g><g transform="translate(-150,-62) scale(1,1)"><g><path fill="none" stroke="none"/><text fill="#000000" stroke="none" font-family="Arial" font-size="13px" font-style="normal" font-weight="bold" text-decoration="none" x="420.224609375" y="552">Manage flights</text></g></g><g transform="translate(-150,-62) scale(1,1)"><path fill="none" stroke="#000000" d="M 487 527 L 781 315" stroke-miterlimit="10" stroke-dasharray="3"/></g><g transform="translate(-150,-62) scale(1,1)"><path fill="none" stroke="#000000" d="M 775.218984918799 324.35841143736087 L 781 315 L 770.2948088454494 317.52960122243275" stroke-miterlimit="10"/></g><g transform="translate(-150,-62) scale(1,1)"><g><path fill="none" stroke="none"/><text fill="#000000" stroke="none" font-family="Arial" font-size="13px" font-style="normal" font-weight="normal" text-decoration="none" x="603.5" y="420.5">«include»</text></g></g><g transform="translate(-150,-62) scale(1,1)"><path fill="#C0C0C0" stroke="none" d="M 391 456 C 391 446.6111584 422.5639216 439 461.5 439 C 500.4360784 439 532 446.6111584 532 456 C 532 465.3888416 500.4360784 473 461.5 473 C 422.5639216 473 391 465.3888416 391 456 Z" opacity="0.2"/></g><g transform="translate(-150,-62) scale(1,1)"><path fill="#ffffff" stroke="none" d="M 384 449 C 384 439.6111584 415.5639216 432 454.5 432 C 493.4360784 432 525 439.6111584 525 449 C 525 458.3888416 493.4360784 466 454.5 466 C 415.5639216 466 384 458.3888416 384 449 Z"/></g><g transform="translate(-150,-62) scale(1,1)"><path fill="none" stroke="#000000" d="M 384 449 C 384 439.6111584 415.5639216 432 454.5 432 C 493.4360784 432 525 439.6111584 525 449 C 525 458.3888416 493.4360784 466 454.5 466 C 415.5639216 466 384 458.3888416 384 449 Z" stroke-miterlimit="10"/></g><g transform="translate(-150,-62) scale(1,1)"><g><path fill="none" stroke="none"/><text fill="#000000" stroke="none" font-family="Arial" font-size="13px" font-style="normal" font-weight="bold" text-decoration="none" x="412.703857421875" y="456">View bookings</text></g></g><g transform="translate(-150,-62) scale(1,1)"><path fill="none" stroke="#000000" d="M 496 431 L 764 315" stroke-miterlimit="10" stroke-dasharray="3"/></g><g transform="translate(-150,-62) scale(1,1)"><path fill="none" stroke="#000000" d="M 756.3456058131752 322.90001579952235 L 764 315 L 753.0013712212982 315.1736807079444" stroke-miterlimit="10"/></g><g transform="translate(-150,-62) scale(1,1)"><g><path fill="none" stroke="none"/><text fill="#000000" stroke="none" font-family="Arial" font-size="13px" font-style="normal" font-weight="normal" text-decoration="none" x="611.5" y="365.5">«include»</text></g></g><g transform="translate(-150,-62) scale(1,1)"><path fill="none" stroke="#000000" d="M 217 233 L 403 155" stroke-miterlimit="10"/></g><g transform="translate(-150,-62) scale(1,1)"><path fill="none" stroke="#000000" d="M 217 240 L 351 227" stroke-miterlimit="10"/></g><g transform="translate(-150,-62) scale(1,1)"><path fill="none" stroke="#000000" d="M 217 245 L 359 268" stroke-miterlimit="10"/></g><g transform="translate(-150,-62) scale(1,1)"><path fill="none" stroke="#000000" d="M 217 251 L 403 335" stroke-miterlimit="10"/></g><g transform="translate(-150,-62) scale(1,1)"><path fill="none" stroke="#000000" d="M 211 454 L 383 451" stroke-miterlimit="10"/></g><g transform="translate(-150,-62) scale(1,1)"><path fill="none" stroke="#000000" d="M 211 464 L 407 527" stroke-miterlimit="10"/></g></g></svg>